<svg id="Layer_1" data-name="Layer 1" xmlns="http://www.w3.org/2000/svg" width="2160" height="2160" viewBox="0 0 2160 2160"><defs><style>.cls-1{fill:red;}.cls-2{fill:#fff;}</style></defs><g id="Layer_2" data-name="Layer 2"><rect class="cls-1" width="2160" height="2160"/><path class="cls-2" d="M130.91,1823.35l-15.67-587.62,186.65-38.11,11.32,423.27,191.45-39.09L509,1746.14Z"/><path class="cls-2" d="M892.74,1667.81l-30.48-83.9L678,1621.53l-29.6,96.17-206.67,42.2,232.67-638.32,195.46-39.91L1085,1628.55Zm-121.25-365-51.14,162.31,97.73-20Z"/><path class="cls-2" d="M1419,1560.35l-169.56-258.28-3.2.66,13.35,290.17-180.24,36.8-15.67-587.62L1245.55,1005l174.91,272.21,3.21-.66-13.9-305.09L1590,934.62l15.66,587.61Z"/><path class="cls-2" d="M821.06,1095.92,790.58,1012l-184.25,37.62-29.6,96.17L370.05,1188,602.72,549.7l195.47-39.91,215.14,546.88ZM699.81,731,648.67,893.29l97.73-19.95Z"/><path class="cls-2" d="M1321.72,993.69,1201.65,802.08l-22.43,4.58,7.12,214.68-178.65,36.47L992,470.21l233.11-47.6q46.45-9.48,86.24-6.76t70.3,17.35a136.49,136.49,0,0,1,50.52,41q20,26.4,27.68,64,14.4,70.5-9.53,122.94t-78.16,81.05L1530,951.17ZM1214.46,676.8q36.82-7.51,55.14-24.2t12.73-43.91q-5.07-24.8-24.17-30.52t-48.74.36l-34.45,7,2.64,98.77Z"/><path class="cls-2" d="M1864,883l-172.9-213.37-1.6.32,7.08,247.23-180.25,36.8-15.66-587.61,179.44-36.63L1686,554.64l2.4-.49,135.12-253.74,225.9-46.12-198.8,326,235.29,257.38Z"/><path class="cls-2" d="M2160,967.6q-4.35-6.18-9.1-11.89-34.23-41-79-61.88A264.92,264.92,0,0,0,1976,869.6a372.84,372.84,0,0,0-99.22,6.48L1642.09,924l15.66,587.62,261.15-53.33q74.5-15.21,133.12-51t96.5-87.3c4-5.5,7.85-11.14,11.48-16.88Zm-147.79,210a139.75,139.75,0,0,1-18.15,52.11q-14.26,24.19-39,42.16t-60.75,25.35l-60.08,12.26-6.34-259.91,49.67-10.14q28.85-5.9,51.78-1.82t39.43,15.32a88.2,88.2,0,0,1,26.82,29.16,131.32,131.32,0,0,1,14.75,39.54A164.47,164.47,0,0,1,2012.21,1177.62Z"/><path class="cls-2" d="M457.48,757.92Q441.13,677.84,373.72,644t-177.15-11.4L0,672.76v562.31l.76,28.34L185,1225.79l-4.14-191.93,54.47-11.12q62.49-12.76,108.81-35.15t75.54-55.06a168,168,0,0,0,39.06-76.39Q468.61,812.4,457.48,757.92ZM263.54,858.43q-19,17.27-57.46,25.09l-29.64,6.05-2.33-101.33,28-5.73q30.43-6.21,50-.21T277,814Q282.56,841.22,263.54,858.43Z"/></g></svg>