<svg id="Layer_1" data-name="Layer 1" xmlns="http://www.w3.org/2000/svg" width="2160" height="2160" viewBox="0 0 2160 2160"><defs><style>.cls-1{fill:#fff;}</style></defs><path class="cls-1" d="M302.85,1393.85,291.66,974.32l133.26-27.21,8.08,302.2,136.69-27.91,3.1,117.33Z"/><path class="cls-1" d="M846.76,1282.8,825,1222.9l-131.55,26.86-21.13,68.66-147.56,30.13L690.88,892.82l139.55-28.49L984,1254.78ZM760.2,1022.24l-36.51,115.89,69.78-14.25Z"/><path class="cls-1" d="M1222.52,1206.08l-121.06-184.4-2.29.47,9.53,207.17L980,1255.59,968.82,836.06l129.83-26.51,124.88,194.35,2.29-.47-9.92-217.82,128.69-26.27,11.19,419.53Z"/><path class="cls-1" d="M1381.77,751.75l167.58-34.22a266.48,266.48,0,0,1,70.85-4.63,189.24,189.24,0,0,1,68.47,17.3q31.93,14.92,56.39,44.19t34,76.17q10.86,53.19,1.09,100.17t-36.81,83.78q-27,36.79-68.9,62.33t-95,36.39L1393,1171.3ZM1519,1027l42.9-8.76q25.74-5.25,43.37-18.09A98.6,98.6,0,0,0,1646,932.83a117.26,117.26,0,0,0-1.31-40,93.55,93.55,0,0,0-10.53-28.23,62.87,62.87,0,0,0-19.14-20.82q-11.77-8-28.15-10.93t-37,1.29l-35.46,7.24Z"/><path class="cls-1" d="M1224.75,1424.7l12.57,453.09-197.82,40.39-12.57-453.09L874.3,1496.25l-4.1-172.36,498-101.67,4.1,172.36Z"/><path class="cls-1" d="M1731,1777l-220,44.92L1300.79,1236l212.32-43.35,104.58,373,3.41-.7,104.32-415.67,227.66-46.48Z"/><path class="cls-1" d="M341.47,967.26,209.92,994.12,198.73,574.59l151-30.83q78.34-16,126.48,8.14T536,633.23q7.93,38.89.91,70.12A120,120,0,0,1,509,757.9q-20.86,23.34-53.94,39.31t-77.69,25.1l-38.89,7.94Zm15-244.37q27.45-5.61,41-17.91t9.6-31.75q-3.74-18.3-17.72-22.6t-35.72.14l-20,4.09,1.66,72.35Z"/><path class="cls-1" d="M795.58,874.54l-21.76-59.9L642.28,841.5l-21.13,68.66L473.59,940.29,639.7,484.55l139.55-28.49,153.6,390.45ZM709,614,672.51,729.87l69.78-14.25Z"/><path class="cls-1" d="M1153,801.55l-85.72-136.8-16,3.27,5.08,153.27-127.54,26L917.66,427.8l166.43-34q33.17-6.76,61.57-4.83t50.19,12.39a97.35,97.35,0,0,1,36.06,29.28q14.27,18.84,19.76,45.71,10.27,50.34-6.8,87.78T1189.06,622L1301.74,771.2ZM1076.46,575.3q26.3-5.37,39.37-17.27t9.09-31.35q-3.62-17.71-17.26-21.8t-34.8.25l-24.59,5,1.89,70.51Z"/><path class="cls-1" d="M1540.24,722.5,1416.79,570.16l-1.14.23,5.06,176.51L1292,773.17l-11.19-419.53,128.11-26.16,4.19,160.6,1.72-.35,96.47-181.15,161.29-32.93L1530.67,506.39l168,183.76Z"/></svg>