<svg id="Layer_1" data-name="Layer 1" xmlns="http://www.w3.org/2000/svg" width="1754.35" height="1644.53" viewBox="0 0 1754.35 1644.53"><g id="Layer_4" data-name="Layer 4"><g id="Layer_2" data-name="Layer 2"><path d="M1026,1151.05l12.57,453.09-197.82,40.39L828.2,1191.44,675.57,1222.6l-4.11-172.36,498-101.67,4.1,172.36Z" style="fill:#fff"/><path d="M1532.28,1503.34l-220,44.92L1102.06,962.33,1314.38,919,1419,1292l3.41-.7,104.32-415.67,227.66-46.48Z" style="fill:#fff"/><path d="M142.74,693.61,11.19,720.47,0,300.94l151-30.83q78.34-16,126.48,8.14t59.8,81.33q7.94,38.9.91,70.12a120,120,0,0,1-27.89,54.55q-20.87,23.34-53.94,39.31t-77.69,25.1l-38.89,7.94Zm15-244.37q27.45-5.61,41-17.91t9.6-31.75q-3.74-18.3-17.72-22.6t-35.72.14l-20,4.09,1.67,72.35Z" style="fill:#fff"/><path d="M596.85,600.89,575.09,541,443.55,567.85l-21.13,68.66L274.86,666.64,441,210.9l139.55-28.49,153.6,390.45ZM510.29,340.33,473.78,456.22,543.56,442Z" style="fill:#fff"/><path d="M954.31,527.9,868.59,391.1l-16,3.27,5.08,153.27-127.54,26L718.93,154.15l166.43-34q33.17-6.76,61.57-4.83t50.19,12.39A97.46,97.46,0,0,1,1033.19,157q14.26,18.84,19.76,45.71,10.27,50.34-6.8,87.78t-55.81,57.87L1103,497.55ZM877.73,301.65q26.29-5.37,39.37-17.27T926.19,253q-3.62-17.72-17.26-21.8t-34.8.25l-24.59,5L851.43,307Z" style="fill:#fff"/><path d="M1341.51,448.85,1218.06,296.51l-1.14.23L1222,473.25l-128.69,26.27L1082.11,80l128.11-26.16,4.19,160.6,1.72-.35L1312.6,32.93,1473.89,0,1332,232.74,1500,416.5Z" style="fill:#fff"/><path d="M104.12,1120.2,92.93,700.67l133.26-27.21,8.08,302.2L371,947.75l3.1,117.33Z" style="fill:#fff"/><path d="M648,1009.15l-21.76-59.9L494.72,976.11l-21.13,68.66L326,1074.9,492.15,619.17,631.7,590.68,785.3,981.13ZM561.47,748.59,525,864.48l69.78-14.25Z" style="fill:#fff"/><path d="M1023.79,932.43,902.73,748l-2.29.47L910,955.67,781.28,981.94,770.09,562.41,899.92,535.9,1024.8,730.25l2.29-.47L1017.17,512l128.69-26.27,11.19,419.53Z" style="fill:#fff"/><path d="M1183,478.1l167.58-34.22a266.48,266.48,0,0,1,70.85-4.63,189.24,189.24,0,0,1,68.47,17.3q31.93,14.93,56.39,44.19t34,76.17q10.86,53.19,1.09,100.17t-36.81,83.78q-27,36.79-68.9,62.33t-95,36.39l-186.45,38.07Zm137.22,275.24,42.9-8.76q25.74-5.25,43.37-18.09a98.6,98.6,0,0,0,40.77-67.31,117.26,117.26,0,0,0-1.31-39.95A93.55,93.55,0,0,0,1435.46,591a62.87,62.87,0,0,0-19.14-20.82q-11.77-8-28.15-10.93t-37,1.29l-35.46,7.24Z" style="fill:#fff"/></g></g></svg>