<?xml version="1.0" encoding="utf-8"?>
<!-- Generator: Adobe Adobe Illustrator 24.2.0, SVG Export Plug-In . SVG Version: 6.00 Build 0)  -->
<svg version="1.1" xmlns="http://www.w3.org/2000/svg" xmlns:xlink="http://www.w3.org/1999/xlink" x="0px" y="0px"
	 viewBox="0 0 2160 2160" style="enable-background:new 0 0 2160 2160;" xml:space="preserve">
<style type="text/css">
	.st0{fill:#FF0000;}
	.st1{fill:#FFFFFF;}
</style>
<g id="Layer_3">
	<g id="Layer_1">
		<rect class="st0" width="2160" height="2160"/>
	</g>
	<g>
		<path class="st1" d="M302.85,1393.85l-11.19-419.53l133.26-27.21l8.08,302.2l136.69-27.91l3.1,117.33L302.85,1393.85z"/>
		<path class="st1" d="M846.76,1282.8L825,1222.9l-131.55,26.86l-21.13,68.66l-147.56,30.13l166.12-455.73l139.55-28.49
			l153.6,390.45L846.76,1282.8z M760.2,1022.24l-36.51,115.89l69.78-14.25L760.2,1022.24z"/>
		<path class="st1" d="M1222.52,1206.08l-121.06-184.4l-2.29,0.47l9.53,207.17l-128.69,26.27l-11.19-419.53l129.83-26.51
			l124.88,194.35l2.29-0.47l-9.92-217.82l128.69-26.27l11.19,419.53L1222.52,1206.08z"/>
		<path class="st1" d="M1381.77,751.75l167.58-34.22c22.88-4.67,46.49-6.21,70.85-4.63c24.35,1.58,47.17,7.35,68.47,17.3
			c21.29,9.95,40.09,24.69,56.39,44.19c16.29,19.52,27.64,44.91,34.02,76.17c7.24,35.46,7.6,68.85,1.09,100.17
			c-6.52,31.32-18.79,59.24-36.81,83.78c-18.03,24.53-41,45.31-68.9,62.33c-27.91,17.02-59.58,29.15-95.04,36.39l-186.45,38.07
			L1381.77,751.75z M1518.99,1026.99l42.9-8.76c17.16-3.5,31.61-9.53,43.37-18.09c11.75-8.55,21.02-18.59,27.81-30.11
			c6.78-11.51,11.1-23.91,12.96-37.2c1.85-13.28,1.42-26.6-1.31-39.95c-2.1-10.3-5.62-19.71-10.53-28.23
			c-4.92-8.53-11.3-15.46-19.14-20.82c-7.85-5.34-17.23-8.99-28.15-10.93c-10.92-1.94-23.25-1.51-36.97,1.29l-35.46,7.24
			L1518.99,1026.99z"/>
	</g>
	<g>
		<path class="st1" d="M1224.75,1424.7l12.57,453.09l-197.82,40.39l-12.57-453.09l-152.63,31.16l-4.1-172.36l497.96-101.67
			l4.1,172.36L1224.75,1424.7z"/>
		<path class="st1" d="M1731.01,1776.99l-219.99,44.92l-210.23-585.93l212.32-43.35l104.58,373.02l3.41-0.7l104.32-415.67
			l227.66-46.48L1731.01,1776.99z"/>
	</g>
	<g>
		<path class="st1" d="M341.47,967.26l-131.55,26.86l-11.19-419.53l150.99-30.83c52.23-10.66,94.39-7.95,126.48,8.14
			c32.08,16.09,52.02,43.21,59.8,81.33c5.29,25.93,5.6,49.3,0.91,70.12c-4.69,20.82-13.99,39-27.89,54.55
			c-13.91,15.56-31.89,28.66-53.94,39.31c-22.05,10.67-47.95,19.02-77.69,25.1l-38.89,7.94L341.47,967.26z M356.51,722.89
			c18.3-3.74,31.98-9.7,41.03-17.91c9.05-8.2,12.25-18.78,9.6-31.75c-2.49-12.2-8.4-19.73-17.72-22.6
			c-9.33-2.86-21.23-2.81-35.72,0.14l-20.02,4.09l1.66,72.35L356.51,722.89z"/>
		<path class="st1" d="M795.58,874.54l-21.76-59.9L642.28,841.5l-21.13,68.66l-147.56,30.13L639.7,484.55l139.55-28.49l153.6,390.45
			L795.58,874.54z M709.02,613.98l-36.51,115.89l69.78-14.25L709.02,613.98z"/>
		<path class="st1" d="M1153.04,801.55l-85.72-136.8l-16.01,3.27l5.08,153.27l-127.54,26.04L917.66,427.8l166.43-33.98
			c22.11-4.51,42.63-6.12,61.57-4.83c18.93,1.3,35.67,5.43,50.19,12.39c14.53,6.97,26.55,16.73,36.06,29.28
			c9.51,12.56,16.1,27.8,19.76,45.71c6.85,33.56,4.58,62.81-6.8,87.78c-11.39,24.96-29.99,44.25-55.81,57.87l112.68,149.18
			L1153.04,801.55z M1076.46,575.3c17.53-3.58,30.66-9.33,39.37-17.27c8.7-7.93,11.74-18.38,9.09-31.35
			c-2.41-11.81-8.17-19.08-17.26-21.8c-9.1-2.7-20.7-2.62-34.8,0.25l-24.59,5.02l1.89,70.51L1076.46,575.3z"/>
		<path class="st1" d="M1540.24,722.5l-123.45-152.34l-1.14,0.23l5.06,176.51l-128.69,26.27l-11.19-419.53l128.11-26.16l4.19,160.6
			l1.72-0.35l96.47-181.15l161.29-32.93l-141.94,232.74l168,183.76L1540.24,722.5z"/>
	</g>
</g>
<g id="Layer_4">
	<g id="Layer_2">
	</g>
</g>
<g id="Layer_5">
</g>
</svg>
