<?xml version="1.0" encoding="utf-8"?>
<!-- Generator: Adobe Adobe Illustrator 24.2.0, SVG Export Plug-In . SVG Version: 6.00 Build 0)  -->
<svg version="1.1" xmlns="http://www.w3.org/2000/svg" xmlns:xlink="http://www.w3.org/1999/xlink" x="0px" y="0px"
	 viewBox="0 0 2160 2160" style="enable-background:new 0 0 2160 2160;" xml:space="preserve">
<style type="text/css">
	.st0{fill:#FF0000;}
	.st1{fill:#FFFFFF;}
</style>
<g id="Layer_3">
	<g id="Layer_1">
	</g>
</g>
<g id="Layer_4">
	<g id="Layer_2">
	</g>
</g>
<g id="Layer_5">
	<g>
		<path class="st1" d="M263.64,1259.44L98.9,1293.08l-14.01-525.4l189.1-38.61c65.42-13.36,118.21-9.96,158.4,10.19
			c40.17,20.15,65.14,54.11,74.89,101.85c6.63,32.48,7.01,61.75,1.14,87.81c-5.87,26.08-17.52,48.85-34.92,68.31
			c-17.42,19.48-39.94,35.89-67.55,49.23c-27.62,13.36-60.05,23.83-97.29,31.43l-48.71,9.94L263.64,1259.44z M282.48,953.41
			c22.92-4.68,40.05-12.15,51.38-22.43c11.33-10.26,15.34-23.52,12.03-39.76c-3.12-15.28-10.52-24.71-22.19-28.3
			c-11.68-3.58-26.59-3.52-44.73,0.18l-25.07,5.12l2.08,90.6L282.48,953.41z"/>
		<path class="st1" d="M832.36,1143.32l-27.25-75.02l-164.74,33.64l-26.46,85.99l-184.8,37.73l208.04-570.74l174.77-35.68
			l192.36,488.99L832.36,1143.32z M723.95,817.01l-45.73,145.13l87.39-17.84L723.95,817.01z"/>
		<path class="st1" d="M1280.02,1051.92l-107.36-171.33l-20.06,4.09l6.36,191.95l-159.73,32.61l-14.01-525.4l208.44-42.56
			c27.69-5.65,53.39-7.66,77.11-6.04c23.71,1.63,44.67,6.81,62.86,15.52c18.2,8.72,33.25,20.95,45.17,36.66
			c11.91,15.73,20.17,34.81,24.75,57.25c8.58,42.02,5.73,78.67-8.52,109.93c-14.26,31.27-37.56,55.42-69.89,72.47l141.11,186.82
			L1280.02,1051.92z M1184.12,768.57c21.96-4.48,38.4-11.69,49.31-21.63c10.9-9.93,14.7-23.02,11.38-39.26
			c-3.02-14.8-10.23-23.9-21.62-27.3c-11.39-3.39-25.92-3.29-43.58,0.32l-30.8,6.29l2.36,88.31L1184.12,768.57z"/>
		<path class="st1" d="M1764.94,952.91l-154.6-190.78l-1.43,0.29l6.34,221.05l-161.16,32.91l-14.01-525.4l160.45-32.76l5.25,201.13
			l2.15-0.44l120.81-226.87l201.99-41.24l-177.76,291.47l210.39,230.13L1764.94,952.91z"/>
	</g>
	<g>
		<path class="st1" d="M215.3,1793.73l-14.01-525.4l166.89-34.08l10.12,378.46l171.19-34.95l3.89,146.94L215.3,1793.73z"/>
		<path class="st1" d="M896.48,1654.65l-27.25-75.02l-164.74,33.64l-26.47,85.99l-184.8,37.73l208.04-570.74l174.77-35.68
			l192.36,488.99L896.48,1654.65z M788.07,1328.34l-45.73,145.13l87.38-17.84L788.07,1328.34z"/>
		<path class="st1" d="M1367.06,1558.56l-151.61-230.94l-2.87,0.58l11.94,259.46l-161.16,32.91l-14.01-525.4l162.59-33.2
			l156.39,243.39l2.87-0.58l-12.42-272.79l161.16-32.91l14.01,525.4L1367.06,1558.56z"/>
		<path class="st1" d="M1566.49,989.58l209.87-42.85c28.65-5.85,58.22-7.78,88.72-5.8c30.5,1.98,59.08,9.2,85.75,21.66
			c26.67,12.46,50.21,30.91,70.62,55.34c20.4,24.44,34.61,56.24,42.61,95.39c9.07,44.41,9.51,86.23,1.36,125.45
			c-8.16,39.23-23.53,74.2-46.1,104.92c-22.58,30.73-51.35,56.74-86.28,78.05c-34.95,21.31-74.62,36.5-119.03,45.57l-233.51,47.68
			L1566.49,989.58z M1738.35,1334.28l53.72-10.97c21.49-4.39,39.59-11.93,54.32-22.66c14.72-10.71,26.33-23.28,34.83-37.7
			c8.49-14.42,13.9-29.94,16.23-46.59c2.32-16.63,1.78-33.31-1.63-50.03c-2.63-12.89-7.03-24.68-13.19-35.36
			c-6.17-10.68-14.16-19.37-23.98-26.07c-9.83-6.69-21.58-11.26-35.25-13.69c-13.68-2.43-29.11-1.89-46.3,1.62l-44.41,9.07
			L1738.35,1334.28z"/>
	</g>
</g>
</svg>
