<?xml version="1.0" encoding="utf-8"?>
<!-- Generator: Adobe Adobe Illustrator 24.2.0, SVG Export Plug-In . SVG Version: 6.00 Build 0)  -->
<svg version="1.1" xmlns="http://www.w3.org/2000/svg" xmlns:xlink="http://www.w3.org/1999/xlink" x="0px" y="0px"
	 viewBox="0 0 2160 2160" style="enable-background:new 0 0 2160 2160;" xml:space="preserve">
<style type="text/css">
	.st0{fill:#FF0000;}
</style>
<g id="Layer_4">
</g>
<g id="Layer_1">
	<g>
		<path class="st0" d="M163.31,1319.02c-2.25-2.25-3.38-4.92-3.38-8.02v-272.58c0-3.09,1.12-5.76,3.38-8.02
			c2.25-2.25,4.92-3.38,8.02-3.38h127.85c39.38,0,70.39,8.72,93.04,26.16c22.64,17.45,33.97,43.19,33.97,77.22
			c0,33.76-11.25,58.86-33.76,75.32c-22.51,16.46-53.59,24.68-93.25,24.68h-29.54V1311c0,3.1-1.13,5.77-3.38,8.02
			c-2.25,2.25-4.92,3.38-8.02,3.38h-86.92C168.23,1322.4,165.56,1321.28,163.31,1319.02z M297.07,1152.35c5.06,0,9.56-1.9,13.5-5.7
			c3.94-3.8,5.91-9.49,5.91-17.09c0-6.47-1.55-12.09-4.64-16.88c-3.1-4.78-8.02-7.17-14.77-7.17h-29.54v46.84H297.07z"/>
		<path class="st0" d="M460.78,1319.02c-2.25-2.25-3.38-4.92-3.38-8.02v-272.58c0-3.09,1.12-5.76,3.38-8.02
			c2.25-2.25,4.92-3.38,8.02-3.38h124.9c40.51,0,72.16,9.07,94.94,27.22c22.79,18.14,34.18,43.25,34.18,75.32
			c0,18.29-4.08,34.39-12.24,48.31c-8.16,13.92-19.27,25.39-33.33,34.39l51.9,96.21c0.84,1.69,1.27,3.24,1.27,4.64
			c0,2.53-0.92,4.71-2.74,6.54c-1.83,1.83-4.01,2.74-6.54,2.74h-86.5c-5.06,0-9.07-1.19-12.03-3.59c-2.95-2.39-5-4.99-6.12-7.81
			l-36.29-80.59h-17.3V1311c0,3.1-1.13,5.77-3.38,8.02c-2.25,2.25-4.92,3.38-8.02,3.38h-82.7
			C465.7,1322.4,463.03,1321.28,460.78,1319.02z M593.7,1150.24c6.18,0,10.97-2.04,14.35-6.12c3.38-4.07,5.06-9.21,5.06-15.4
			c0-6.18-1.62-11.6-4.85-16.25c-3.24-4.64-8.09-6.96-14.56-6.96h-30.8v44.73H593.7z"/>
		<path class="st0" d="M792.44,1297.5c-25.04-19.41-38.4-47.68-40.09-84.81c-0.28-7.6-0.42-19.83-0.42-36.71
			c0-17.16,0.14-29.68,0.42-37.55c0.84-24.19,7.24-45,19.2-62.45c11.95-17.44,28.34-30.66,49.16-39.66c20.81-9,45-13.5,72.58-13.5
			c27.57,0,51.76,4.5,72.58,13.5c20.81,9.01,37.2,22.23,49.16,39.66c11.95,17.45,18.36,38.26,19.2,62.45
			c0.56,15.76,0.84,28.27,0.84,37.55s-0.28,21.52-0.84,36.71c-1.69,37.13-15.05,65.4-40.09,84.81
			c-25.04,19.41-58.65,29.12-100.85,29.12C851.09,1326.62,817.47,1316.91,792.44,1297.5z M915.86,1235.9
			c5.49-5.62,8.37-14.2,8.65-25.74c0.56-16.31,0.84-28.27,0.84-35.87c0-8.16-0.28-19.83-0.84-35.02
			c-0.28-11.53-3.24-20.11-8.86-25.74c-5.63-5.62-13.08-8.44-22.36-8.44s-16.74,2.82-22.36,8.44c-5.63,5.63-8.58,14.21-8.86,25.74
			c-0.28,7.6-0.42,19.27-0.42,35.02c0,15.76,0.14,27.71,0.42,35.87c0.28,11.54,3.17,20.12,8.65,25.74
			c5.49,5.63,13.01,8.44,22.58,8.44C902.85,1244.34,910.38,1241.53,915.86,1235.9z"/>
		<path class="st0" d="M1076.41,1319.02c-2.25-2.25-3.38-4.92-3.38-8.02v-272.58c0-3.09,1.12-5.76,3.38-8.02
			c2.25-2.25,4.92-3.38,8.02-3.38h212.67c3.09,0,5.76,1.13,8.02,3.38c2.25,2.25,3.38,4.92,3.38,8.02v64.14
			c0,3.1-1.13,5.77-3.38,8.02c-2.25,2.25-4.93,3.38-8.02,3.38h-120.68v31.22h112.24c3.09,0,5.76,1.13,8.02,3.38
			c2.25,2.25,3.38,4.92,3.38,8.02v63.72c0,3.1-1.13,5.77-3.38,8.02c-2.25,2.25-4.92,3.38-8.02,3.38h-112.24V1311
			c0,3.1-1.13,5.77-3.38,8.02c-2.25,2.25-4.92,3.38-8.02,3.38h-80.59C1081.33,1322.4,1078.66,1321.28,1076.41,1319.02z"/>
		<path class="st0" d="M1349,1319.02c-2.25-2.25-3.38-4.92-3.38-8.02v-272.58c0-3.09,1.12-5.76,3.38-8.02
			c2.25-2.25,4.92-3.38,8.02-3.38h86.08c3.09,0,5.76,1.13,8.02,3.38c2.25,2.25,3.38,4.92,3.38,8.02V1311c0,3.1-1.13,5.77-3.38,8.02
			c-2.25,2.25-4.92,3.38-8.02,3.38h-86.08C1353.91,1322.4,1351.24,1321.28,1349,1319.02z"/>
		<path class="st0" d="M1504.27,1319.02c-2.25-2.25-3.38-4.92-3.38-8.02v-272.58c0-3.09,1.12-5.76,3.38-8.02
			c2.25-2.25,4.92-3.38,8.02-3.38h84.39c3.09,0,5.76,1.13,8.02,3.38c2.25,2.25,3.38,4.92,3.38,8.02v197.48h116.88
			c3.09,0,5.76,1.13,8.02,3.38c2.25,2.25,3.38,4.93,3.38,8.02V1311c0,3.1-1.13,5.77-3.38,8.02c-2.25,2.25-4.93,3.38-8.02,3.38
			h-212.67C1509.19,1322.4,1506.52,1321.28,1504.27,1319.02z"/>
		<path class="st0" d="M1768.42,1319.02c-2.25-2.25-3.38-4.92-3.38-8.02v-272.58c0-3.09,1.12-5.76,3.38-8.02
			c2.25-2.25,4.92-3.38,8.02-3.38h216.46c3.09,0,5.76,1.13,8.02,3.38c2.25,2.25,3.38,4.92,3.38,8.02v59.5c0,3.1-1.13,5.77-3.38,8.02
			c-2.25,2.25-4.92,3.38-8.02,3.38h-126.59v26.58h117.3c3.09,0,5.76,1.13,8.02,3.38c2.25,2.25,3.38,4.92,3.38,8.02v54.85
			c0,3.1-1.13,5.77-3.38,8.02c-2.25,2.25-4.92,3.38-8.02,3.38h-117.3v26.58h129.96c3.09,0,5.76,1.13,8.02,3.38
			c2.25,2.25,3.38,4.93,3.38,8.02v59.5c0,3.1-1.13,5.77-3.38,8.02c-2.25,2.25-4.92,3.38-8.02,3.38h-219.84
			C1773.34,1322.4,1770.67,1321.28,1768.42,1319.02z"/>
	</g>
	<g>
		<path class="st0" d="M162.74,1000.08c-1.23-1.23-1.84-2.69-1.84-4.38V846.84c0-1.69,0.61-3.15,1.84-4.38
			c1.23-1.23,2.69-1.84,4.38-1.84h69.82c21.51,0,38.44,4.76,50.81,14.29c12.36,9.53,18.55,23.58,18.55,42.17
			c0,18.43-6.15,32.15-18.43,41.13c-12.29,8.99-29.27,13.48-50.93,13.48h-16.13v44.01c0,1.69-0.62,3.15-1.84,4.38
			c-1.23,1.23-2.69,1.84-4.38,1.84h-47.47C165.43,1001.93,163.97,1001.31,162.74,1000.08z M235.79,909.06
			c2.76,0,5.22-1.04,7.37-3.11c2.15-2.07,3.23-5.18,3.23-9.33c0-3.53-0.85-6.6-2.54-9.22c-1.69-2.61-4.38-3.92-8.06-3.92h-16.13
			v25.58H235.79z"/>
		<path class="st0" d="M299.5,1000.43c-1-1-1.5-2.19-1.5-3.57c0-0.61,0.08-1.15,0.23-1.61l51.39-147.02
			c0.61-1.99,1.76-3.76,3.46-5.3c1.69-1.53,3.99-2.3,6.91-2.3h50c2.92,0,5.22,0.77,6.91,2.3c1.69,1.54,2.84,3.31,3.46,5.3
			l51.39,147.02c0.15,0.46,0.23,1,0.23,1.61c0,1.38-0.5,2.57-1.5,3.57c-1,1-2.19,1.5-3.57,1.5h-42.63c-4.61,0-7.6-1.92-8.99-5.76
			l-5.53-15.21h-49.54l-5.53,15.21c-1.38,3.84-4.38,5.76-8.99,5.76h-42.63C301.69,1001.93,300.5,1001.43,299.5,1000.43z
			 M398.01,936.02l-13.13-42.86l-12.9,42.86H398.01z"/>
		<path class="st0" d="M486.5,1000.08c-1.23-1.23-1.84-2.69-1.84-4.38V846.84c0-1.69,0.61-3.15,1.84-4.38
			c1.23-1.23,2.69-1.84,4.38-1.84h68.21c22.12,0,39.4,4.95,51.85,14.86s18.67,23.62,18.67,41.13c0,9.99-2.23,18.78-6.68,26.38
			c-4.46,7.6-10.52,13.87-18.2,18.78l28.34,52.54c0.46,0.92,0.69,1.77,0.69,2.54c0,1.38-0.5,2.57-1.5,3.57c-1,1-2.19,1.5-3.57,1.5
			h-47.24c-2.76,0-4.95-0.65-6.57-1.96c-1.61-1.3-2.73-2.73-3.34-4.26l-19.82-44.01h-9.45v44.01c0,1.69-0.62,3.15-1.84,4.38
			c-1.23,1.23-2.69,1.84-4.38,1.84h-45.17C489.18,1001.93,487.73,1001.31,486.5,1000.08z M559.09,907.91c3.38,0,5.99-1.11,7.83-3.34
			c1.84-2.23,2.76-5.03,2.76-8.41c0-3.38-0.89-6.34-2.65-8.87c-1.77-2.53-4.42-3.8-7.95-3.8h-16.82v24.43H559.09z"/>
		<path class="st0" d="M652.87,1000.08c-1.23-1.23-1.84-2.69-1.84-4.38V846.84c0-1.69,0.61-3.15,1.84-4.38
			c1.23-1.23,2.69-1.84,4.38-1.84h44.01c1.69,0,3.15,0.62,4.38,1.84c1.23,1.23,1.84,2.69,1.84,4.38v45.63l26.04-46.78
			c1.84-3.38,4.91-5.07,9.22-5.07h50.93c1.38,0,2.57,0.5,3.57,1.5c1,1,1.5,2.19,1.5,3.57c0,0.92-0.23,1.77-0.69,2.54l-41.48,69.59
			l45.4,76.5c0.46,0.62,0.69,1.46,0.69,2.54c0,1.38-0.5,2.57-1.5,3.57c-1,1-2.19,1.5-3.57,1.5h-52.54c-2.61,0-4.69-0.58-6.22-1.73
			c-1.54-1.15-2.61-2.34-3.23-3.57l-28.11-50.23v49.31c0,1.69-0.62,3.15-1.84,4.38c-1.23,1.23-2.69,1.84-4.38,1.84h-44.01
			C655.55,1001.93,654.1,1001.31,652.87,1000.08z"/>
		<path class="st0" d="M817.63,1000.08c-1.23-1.23-1.84-2.69-1.84-4.38V846.84c0-1.69,0.61-3.15,1.84-4.38
			c1.23-1.23,2.69-1.84,4.38-1.84h46.09c1.69,0,3.15,0.62,4.38,1.84c1.23,1.23,1.84,2.69,1.84,4.38v107.84h63.83
			c1.69,0,3.15,0.62,4.38,1.84c1.23,1.23,1.84,2.69,1.84,4.38v34.8c0,1.69-0.62,3.15-1.84,4.38c-1.23,1.23-2.69,1.84-4.38,1.84
			H822.01C820.31,1001.93,818.86,1001.31,817.63,1000.08z"/>
		<path class="st0" d="M948.86,1000.43c-1-1-1.5-2.19-1.5-3.57c0-0.61,0.08-1.15,0.23-1.61l51.39-147.02
			c0.61-1.99,1.76-3.76,3.46-5.3c1.69-1.53,3.99-2.3,6.91-2.3h50c2.92,0,5.22,0.77,6.91,2.3c1.69,1.54,2.84,3.31,3.46,5.3
			l51.39,147.02c0.15,0.46,0.23,1,0.23,1.61c0,1.38-0.5,2.57-1.5,3.57c-1,1-2.19,1.5-3.57,1.5h-42.63c-4.61,0-7.6-1.92-8.99-5.76
			l-5.53-15.21h-49.54l-5.53,15.21c-1.38,3.84-4.38,5.76-8.99,5.76h-42.63C951.05,1001.93,949.86,1001.43,948.86,1000.43z
			 M1047.37,936.02l-13.13-42.86l-12.9,42.86H1047.37z"/>
		<path class="st0" d="M1135.85,1000.08c-1.23-1.23-1.84-2.69-1.84-4.38V846.84c0-1.69,0.61-3.15,1.84-4.38
			c1.23-1.23,2.69-1.84,4.38-1.84h36.41c4.3,0,7.45,1.77,9.45,5.3l38.94,63.83v-62.91c0-1.69,0.61-3.15,1.84-4.38
			c1.23-1.23,2.69-1.84,4.38-1.84h41.71c1.69,0,3.15,0.62,4.38,1.84c1.23,1.23,1.84,2.69,1.84,4.38V995.7
			c0,1.69-0.62,3.15-1.84,4.38c-1.23,1.23-2.69,1.84-4.38,1.84h-36.41c-2.61,0-4.61-0.54-5.99-1.61c-1.38-1.07-2.53-2.3-3.46-3.69
			l-38.94-58.76v57.84c0,1.69-0.62,3.15-1.84,4.38c-1.23,1.23-2.69,1.84-4.38,1.84h-41.71
			C1138.54,1001.93,1137.08,1001.31,1135.85,1000.08z"/>
		<path class="st0" d="M1306.37,1000.08c-1.23-1.23-1.84-2.69-1.84-4.38V846.84c0-1.69,0.61-3.15,1.84-4.38
			c1.23-1.23,2.69-1.84,4.38-1.84h66.37c14.59,0,27.57,2.46,38.94,7.37c11.37,4.92,20.43,12.14,27.19,21.66
			c6.76,9.53,10.37,20.97,10.83,34.33c0.31,8.6,0.46,14.44,0.46,17.51c0,2.92-0.15,8.53-0.46,16.82c-0.92,21.2-8.1,37.1-21.54,47.7
			c-13.44,10.6-31.53,15.9-54.27,15.9h-67.52C1309.06,1001.93,1307.6,1001.31,1306.37,1000.08z M1377.12,956.99
			c5.38,0,9.71-1.57,13.02-4.72c3.3-3.15,5.11-7.79,5.42-13.94c0.31-4.45,0.46-10.21,0.46-17.28c0-7.22-0.15-12.9-0.46-17.05
			c-0.31-6.14-2.27-10.75-5.88-13.83c-3.61-3.07-8.18-4.61-13.71-4.61h-13.83v71.44H1377.12z"/>
	</g>
</g>
<g id="Layer_2">
</g>
</svg>
