<?xml version="1.0" encoding="utf-8"?>
<!-- Generator: Adobe Adobe Illustrator 24.2.0, SVG Export Plug-In . SVG Version: 6.00 Build 0)  -->
<svg version="1.1" xmlns="http://www.w3.org/2000/svg" xmlns:xlink="http://www.w3.org/1999/xlink" x="0px" y="0px"
	 viewBox="0 0 2160 2160" style="enable-background:new 0 0 2160 2160;" xml:space="preserve">
<style type="text/css">
	.st0{fill:#FF0000;}
</style>
<g id="Layer_4">
</g>
<g id="Layer_1">
</g>
<g id="Layer_2">
	<g>
		<g>
			<g>
				<path class="st0" d="M433.26,1101.92c-4.85-11.5-11.77-21.74-20.75-30.72c-8.99-8.98-19.94-16.88-32.88-23.71
					c-12.94-6.82-27.67-12.94-44.19-18.33c-13.3-4.31-23.36-8.44-30.18-12.4c-6.83-3.95-10.24-9.52-10.24-16.71
					c0-8.98,4.04-15.63,12.13-19.94c8.08-4.31,17.15-6.47,27.22-6.47c12.94,0,24.25,2.25,33.95,6.74c9.7,4.5,17.6,10.33,23.71,17.52
					l79.77-77.07c-6.83-7.18-15.28-13.65-25.33-19.4c-10.06-5.74-21.02-10.69-32.88-14.82c-11.86-4.13-24.44-7.36-37.73-9.7
					c-13.3-2.33-26.77-3.5-40.42-3.5c-24.79,0-47.52,3.5-68.18,10.51c-20.67,7.01-38.45,16.71-53.36,29.1
					c-14.91,12.4-26.41,27.04-34.49,43.92c-8.08,16.89-12.13,35.22-12.13,54.97c0,16.17,2.51,29.91,7.55,41.23
					c5.03,11.32,11.94,21.02,20.75,29.1c8.8,8.08,19.22,15.01,31.26,20.75c12.03,5.75,24.88,10.78,38.54,15.09
					c17.25,5.39,29.01,10.6,35.3,15.63c6.28,5.04,9.43,10.78,9.43,17.25c0,7.91-3.77,13.93-11.32,18.06
					c-7.55,4.13-17.61,6.2-30.18,6.2c-5.75,0-12.04-0.81-18.86-2.43c-6.83-1.62-13.57-3.77-20.21-6.47
					c-6.65-2.69-13.03-6.01-19.13-9.97c-6.11-3.95-11.32-8.44-15.63-13.47l-85.15,78.69c8.99,8.62,19.59,16.35,31.8,23.17
					c12.21,6.83,25.24,12.58,39.07,17.25c13.83,4.67,28.3,8.26,43.39,10.78c15.09,2.51,30.18,3.77,45.27,3.77
					c19.04,0,38.62-2.52,58.75-7.55c20.12-5.03,38.54-12.93,55.24-23.71s30.45-24.79,41.23-42.04c0.95-1.52,1.84-3.07,2.7-4.64
					l12.66-71.71C438.65,1117.93,436.5,1109.6,433.26,1101.92z"/>
				<path class="st0" d="M775.95,983.78c-3.34-28.53-16.06-51.49-38.18-68.88c-26.05-20.48-63.69-30.72-112.91-30.72H482.58
					l-42.85,242.71l0,0c0.53,4.45,0.81,9.06,0.81,13.83c0,22.29-4.5,41.57-13.47,57.88l-0.01,0.07l-11.85,67.09h123.96l22.63-124.5
					h36.65c28.03,0,52.99-2.78,74.92-8.35c21.91-5.57,40.59-14.1,56.05-25.6c5.77-4.3,11.03-9.04,15.77-14.25
					c0.95-28.3,6.47-55,16.56-80.07C765.87,1002.76,770.6,993.02,775.95,983.78z M638.33,1038.86c-9.7,5.75-23.17,8.63-40.42,8.63
					h-19.94l11.86-65.76h18.86c13.65,0,24.43,2.16,32.34,6.47c7.9,4.31,11.85,12.22,11.85,23.71
					C652.88,1024.13,648.03,1033.12,638.33,1038.86z"/>
				<path class="st0" d="M1024.17,972.17c-8.22-4.66-17.56-6.99-28.02-6.98c-6.35,0-14.5,1.2-24.46,3.57l0.09,105.32
					c6.6,1.24,12.45,2.17,17.56,2.79c5.1,0.62,9.46,0.93,13.07,0.92c12.95-0.01,24.11-5.03,33.51-15.06
					c9.39-10.03,14.08-23.01,14.07-38.94c-0.01-10.95-2.26-21.13-6.75-30.53C1038.75,983.86,1032.39,976.83,1024.17,972.17z"/>
				<path class="st0" d="M902.08,1075.54c-12.95,0-24.12,5.01-33.52,15.03c-9.4,10.02-14.1,23-14.1,38.93
					c0,10.95,2.24,21.13,6.72,30.53c4.48,9.4,10.83,16.43,19.05,21.1s17.55,7,28.01,7c6.35,0,14.5-1.18,24.46-3.55v-105.31
					c-6.6-1.25-12.45-2.18-17.55-2.8C910.05,1075.85,905.69,1075.54,902.08,1075.54z"/>
				<path class="st0" d="M1166.51,1048.02c0-25.5-4.14-48.86-12.4-70.06c-8.27-21.2-20.4-39.52-36.38-54.97
					c-15.99-15.45-35.76-27.4-59.29-35.84s-50.75-12.67-81.65-12.67c-34.85,0-66.56,5.93-95.12,17.79
					c-28.57,11.85-52.91,28.02-73.03,48.5c-12.69,12.91-23.58,27.24-32.69,43.01c0.59,5.07,0.89,10.32,0.89,15.74
					c0,24.44-4.04,45.63-12.12,63.59c-5.07,11.26-11.57,21.24-19.53,29.95c-0.1,2.94-0.15,5.89-0.15,8.86
					c0,25.52,4.13,48.87,12.4,70.06c8.26,21.21,20.39,39.53,36.38,54.98c15.98,15.45,35.75,27.4,59.28,35.84
					c23.53,8.44,50.57,12.66,81.12,12.66c35.2,0,67.1-5.93,95.66-17.78c28.56-11.86,52.99-28.03,73.3-48.51
					c20.29-20.48,35.92-44.55,46.89-72.22c3.67-9.27,6.73-18.77,9.17-28.49l5.85-33.13
					C1166.04,1066.4,1166.51,1057.3,1166.51,1048.02z M1072.15,1070.44c-13.62,12.96-32.88,19.45-57.78,19.47
					c-6.1,0-12.7-0.42-19.79-1.29c-7.1-0.86-14.69-2.17-22.79-3.9l0.06,73.76c0.01,15.94,1.76,25.83,5.25,29.69
					c4.61,5.33,11.53,8.05,20.75,8.19h6.93v0.01l3.52,0l0.01,6.91l-108.49,0.09l0-0.34c-16.98-0.71-30.79-2.96-41.42-6.76
					c-13.07-4.67-24.09-12.54-33.05-23.62c-8.96-11.08-13.44-24.21-13.44-39.4c0-20.67,6.82-37.47,20.45-50.42
					c13.63-12.95,32.9-19.42,57.79-19.42c6.1,0,12.7,0.43,19.79,1.31c7.1,0.87,14.69,2.18,22.78,3.92v-73.76
					c0-15.94-1.74-25.83-5.23-29.69c-4.31-4.99-10.63-7.7-18.96-8.14l-8.9,0.01l0-0.08h-3.32v-6.91h108.49v0.25
					c16.89,0.7,30.63,2.94,41.23,6.72c13.07,4.66,24.1,12.52,33.07,23.59c8.97,11.08,13.46,24.2,13.48,39.39
					C1092.57,1040.68,1085.77,1057.49,1072.15,1070.44z"/>
				<path class="st0" d="M1476.59,934.18c-5.64-8.57-12.71-16.07-21.21-22.51c-11.86-8.98-26.23-15.81-43.12-20.48
					s-35.75-7.01-56.59-7.01h-156.83l-33.75,191.15c-1.19,11.32-3.14,22.36-5.85,33.13l-27.77,157.3h120.19l23.71-139.59h15.09
					l52.28,139.59h140.13L1408.49,1110c25.87-7.54,46.26-21.55,61.17-42.04c14.91-20.47,22.37-46.52,22.37-78.14
					c0-0.18,0-0.36-0.01-0.54c0,0,0,0,0,0h-25.32L1476.59,934.18z M1354.06,1038.59c-9.35,5.58-22.29,8.36-38.81,8.36h-24.79
					l11.32-64.14h23.17c13.29,0,23.8,2.07,31.53,6.2c7.72,4.13,11.59,11.77,11.59,22.9
					C1368.07,1024.13,1363.4,1033.03,1354.06,1038.59z"/>
				<path class="st0" d="M1792.49,913.02c1.02-0.84,2.05-1.67,3.09-2.49l4.73-26.34h-314.75l-8.97,50c0,0,0,0,0,0
					c2.23,3.38,4.23,6.92,6.01,10.63c6.21,12.98,9.36,27.8,9.42,44.47h71.15l-48.51,276.48h125.04l48.51-276.48h59.55
					c1.93-11.31,5.34-22.09,10.24-32.34C1766.08,940.06,1777.58,925.41,1792.49,913.02z"/>
				<path class="st0" d="M1991.1,1071.2c-8.99-8.98-19.94-16.88-32.88-23.71c-12.94-6.82-27.67-12.94-44.19-18.33
					c-13.3-4.31-23.36-8.44-30.18-12.4c-6.83-3.95-10.24-9.52-10.24-16.71c0-8.98,4.04-15.63,12.13-19.94
					c8.08-4.31,17.15-6.47,27.22-6.47c12.94,0,24.25,2.25,33.95,6.74c9.7,4.5,17.6,10.33,23.71,17.52l79.77-77.07
					c-6.83-7.18-15.28-13.65-25.33-19.4c-10.06-5.74-21.02-10.69-32.88-14.82c-11.86-4.13-24.44-7.36-37.73-9.7
					c-13.3-2.33-26.77-3.5-40.42-3.5c-24.79,0-47.52,3.5-68.18,10.51c-19.26,6.53-36.01,15.4-50.27,26.61l-14.14,78.76h-33.69
					c-1.25,7.33-1.88,14.87-1.88,22.64c0,16.17,2.51,29.91,7.55,41.23c5.03,11.32,11.94,21.02,20.75,29.1
					c8.8,8.08,19.22,15.01,31.26,20.75c12.03,5.75,24.88,10.78,38.54,15.09c17.25,5.39,29.01,10.6,35.3,15.63
					c6.28,5.04,9.43,10.78,9.43,17.25c0,7.91-3.77,13.93-11.32,18.06c-7.55,4.13-17.61,6.2-30.18,6.2c-5.75,0-12.04-0.81-18.86-2.43
					c-6.83-1.62-13.57-3.77-20.21-6.47c-6.65-2.69-13.03-6.01-19.13-9.97c-6.11-3.95-11.32-8.44-15.63-13.47l-85.15,78.69
					c8.99,8.62,19.59,16.35,31.8,23.17c12.21,6.83,25.24,12.58,39.07,17.25c13.83,4.67,28.3,8.26,43.39,10.78
					c15.09,2.51,30.18,3.77,45.27,3.77c19.04,0,38.62-2.52,58.75-7.55c20.12-5.03,38.54-12.93,55.24-23.71s30.45-24.79,41.23-42.04
					c10.78-17.25,16.17-38.08,16.17-62.52c0-14.37-2.43-27.3-7.28-38.8C2007,1090.42,2000.08,1080.18,1991.1,1071.2z"/>
			</g>
		</g>
	</g>
	
		<rect x="433.09" y="1128.24" transform="matrix(0.9848 0.1738 -0.1738 0.9848 209.1884 -59.4265)" class="st0" width="21.5" height="72.5"/>
	
		<rect x="752.48" y="982.59" transform="matrix(0.955 0.2967 -0.2967 0.955 342.7457 -179.6684)" class="st0" width="21.5" height="113.25"/>
	
		<rect x="1610.6" y="780.28" transform="matrix(-1.092100e-07 1 -1 -1.092100e-07 2599.8794 -676.3223)" class="st0" width="55" height="363"/>
	
		<rect x="1777.73" y="892.4" transform="matrix(2.853104e-07 1 -1 2.853104e-07 2712.0049 -867.1979)" class="st0" width="23.75" height="60"/>
</g>
</svg>
