<?xml version="1.0" encoding="utf-8"?>
<!-- Generator: Adobe Adobe Illustrator 24.2.0, SVG Export Plug-In . SVG Version: 6.00 Build 0)  -->
<svg version="1.1" xmlns="http://www.w3.org/2000/svg" xmlns:xlink="http://www.w3.org/1999/xlink" x="0px" y="0px"
	 viewBox="0 0 2160 2160" style="enable-background:new 0 0 2160 2160;" xml:space="preserve">
<style type="text/css">
	.st0{fill:#FF0000;}
</style>
<g id="Layer_4">
	<g>
		<path class="st0" d="M392.78,1320.98H216.1l96.02-543.86h202.79c70.15,0,123.79,14.6,160.93,43.79
			c37.12,29.19,55.69,69.4,55.69,120.6c0,34.83-5.76,65.04-17.28,90.64c-11.52,25.61-28.3,46.61-50.31,62.99
			c-22.02,16.4-48.66,28.55-79.89,36.49c-31.24,7.95-66.83,11.91-106.77,11.91h-52.23L392.78,1320.98z M476.51,1009.88
			c24.58,0,43.79-4.09,57.61-12.29c13.83-8.19,20.74-20.99,20.74-38.41c0-16.38-5.64-27.65-16.9-33.8
			c-11.27-6.15-26.63-9.22-46.09-9.22h-26.89l-16.9,93.72H476.51z"/>
		<path class="st0" d="M1155.56,1320.98l60.69-314.95h-4.61l-160.55,314.95H925.88l-48.39-314.95h-3.84l-46.86,314.95H660.86
			l96.02-543.86h226.61l47.63,298.05h3.84l141.34-298.05h248.12l-96.02,543.86H1155.56z"/>
		<path class="st0" d="M1679.44,1320.98l-107.54-269.62h-3.07l-42.25,269.62h-172.84l96.02-543.86h174.37l109.85,283.45h3.07
			l44.55-283.45h172.84l-96.02,543.86H1679.44z"/>
	</g>
	<polygon class="st0" points="205.57,1381 212.57,1341 1854.57,1341 1846.57,1381 	"/>
</g>
<g id="Layer_1">
</g>
<g id="Layer_2">
</g>
</svg>
