<svg id="Layer_1" data-name="Layer 1" xmlns="http://www.w3.org/2000/svg" width="1986.33" height="1402.93" viewBox="0 0 1986.33 1402.93"><defs><style>.cls-1{fill:red;}</style></defs><g id="Layer_2" data-name="Layer 2"><path class="cls-1" d="M263.68,1259.44,98.94,1293.08l-14-525.4L274,729.07q98.13-20,158.4,10.19t74.89,101.85q9.95,48.72,1.14,87.81a150.22,150.22,0,0,1-34.92,68.31q-26.13,29.22-67.55,49.23t-97.3,31.43L260,1087.83Zm18.84-306q34.38-7,51.38-22.43t12-39.76q-4.68-22.92-22.19-28.3T279,863.1l-25.07,5.12,2.08,90.6Z" transform="translate(-84.93 -390.8)"/><path class="cls-1" d="M832.4,1143.32l-27.25-75-164.74,33.64-26.46,86-184.8,37.73,208-570.74L812,619.24l192.36,489ZM724,817,678.26,962.14l87.39-17.84Z" transform="translate(-84.93 -390.8)"/><path class="cls-1" d="M1280.06,1051.92,1172.7,880.59l-20.06,4.09,6.36,192-159.73,32.61-14-525.4,208.44-42.56q41.54-8.47,77.11-6t62.86,15.52a122,122,0,0,1,45.17,36.66q17.87,23.6,24.75,57.25,12.87,63-8.52,109.93t-69.89,72.47l141.11,186.82Zm-95.9-283.35q32.94-6.72,49.31-21.63t11.38-39.26q-4.53-22.2-21.62-27.3t-43.58.32l-30.8,6.29,2.36,88.31Z" transform="translate(-84.93 -390.8)"/><path class="cls-1" d="M1765,952.91l-154.6-190.78-1.43.29,6.34,221.05-161.16,32.91-14-525.4,160.45-32.76,5.25,201.13,2.15-.44L1728.78,432l202-41.24L1753,682.27,1963.39,912.4Z" transform="translate(-84.93 -390.8)"/><path class="cls-1" d="M215.34,1793.73l-14-525.4,166.89-34.08,10.12,378.46,171.19-35,3.89,146.94Z" transform="translate(-84.93 -390.8)"/><path class="cls-1" d="M896.51,1654.65l-27.25-75-164.74,33.64-26.47,86L493.25,1737l208-570.74,174.77-35.68,192.36,489Zm-108.4-326.31-45.73,145.13,87.38-17.84Z" transform="translate(-84.93 -390.8)"/><path class="cls-1" d="M1367.1,1558.56l-151.61-230.94-2.87.58,11.94,259.46-161.16,32.91-14-525.4L1212,1062l156.39,243.39,2.87-.58L1358.82,1032,1520,999.08l14,525.4Z" transform="translate(-84.93 -390.8)"/><path class="cls-1" d="M1566.53,989.58l209.87-42.85a334,334,0,0,1,88.72-5.81,237,237,0,0,1,85.75,21.66q40,18.69,70.62,55.34t42.61,95.39q13.61,66.62,1.36,125.45t-46.1,104.92q-33.87,46.1-86.28,78t-119,45.57L1580.54,1515Zm171.86,344.7,53.72-11q32.23-6.58,54.32-22.66t34.83-37.7a125.08,125.08,0,0,0,16.23-46.59,147,147,0,0,0-1.63-50,117.1,117.1,0,0,0-13.19-35.36,78.73,78.73,0,0,0-24-26.07q-14.75-10-35.25-13.69t-46.3,1.62l-44.41,9.07Z" transform="translate(-84.93 -390.8)"/></g></svg>